<svg
  xmlns="http://www.w3.org/2000/svg"
  viewBox="0 0 160 160"
>
  <rect x="0" y="0" width="160" height="160" fill="white" rx="10"></rect>
  <path
    d="M56.58 36.49c-5.63 0-11.27.18-16.89-.07-2.77-.12-3.27.86-3.24 3.37.12 11.43 0 22.86.09 34.28 0 2.25-.55 3-2.88 2.93-9.78-.12-19.57-.06-29.36 0-1.53 0-2.44-.38-2.76-2-5-25.1 2-46.16 22-62.25C38.07 1 55-2.08 73.26 1.26 77 2 77 2.05 77 6v27.79c0 2.15-.65 2.85-2.8 2.8-5.89-.12-11.78 0-17.67 0z"
    fill="#fbc64d"
    transform="translate(18.5,13)"
  ></path>
  <path
    d="M41.93 85.24h33a4.92 4.92 0 0 1 4.67 2.48c9.5 14.45 19.13 28.82 28.71 43.22.24.36.43.76.7 1.1 1.1 1.43.65 1.89-1 1.88-6.58 0-13.19-.37-19.74.14-5 .39-8.37-1-10.52-5.65-1-2.25-2.76-4.18-4.06-6.32a3 3 0 0 0-3.42-1.54Q37.77 125 15.43 101a58.4 58.4 0 0 1-8.88-13c-1-1.91-.75-2.68 1.61-2.66 11.26.07 22.51 0 33.77 0z"
    fill="#fc417f"
    transform="translate(18.5,13)"
  ></path>
  <path
    d="M121.48 60.7a60.8 60.8 0 0 1-17.36 42.62c-1.61 1.69-2.5 1.76-3.83-.29-4.76-7.32-9.67-14.55-14.53-21.8A5.55 5.55 0 0 1 85 78V8.12c0-2.82.3-3 2.69-1.82a59.86 59.86 0 0 1 30.78 35.51 55.79 55.79 0 0 1 3.01 18.89z"
    fill="#258bfa"
    transform="translate(18.5,13)"
  ></path>
</svg>