<svg
  xmlns="http://www.w3.org/2000/svg"
  width="92"
  height="92"
  viewBox="0 0 92 92"
>
  <defs id="SvgjsDefs8668">
    <linearGradient id="SvgjsLinearGradient8675">
      <stop
        id="SvgjsStop8676"
        stop-color="#2d388a"
        offset="0"
      ></stop>
      <stop
        id="SvgjsStop8677"
        stop-color="#00aeef"
        offset="1"
      ></stop>
    </linearGradient>
  </defs>
  <g
    id="SvgjsG8669"
    featurekey="symbolContainer"
    transform="matrix(1,0,0,1,0,0)"
    fill="url(#SvgjsLinearGradient8675)"
  >
    <rect
      width="92"
      height="92"
      rx="12"
    ></rect>
  </g>
  <g
    id="SvgjsG8670"
    featurekey="monogramFeature-0"
    transform="matrix(1.4110584297754885,0,0,1.4110584297754885,14.30690576597639,-7.690069741508758)"
    fill="#ffffff"
  >
    <path d="M42.54 51.18 c-0.16002 0.24 -0.3801 0.53015 -0.66012 0.87018 s-0.57 0.67002 -0.87 0.99 s-0.6 0.63 -0.9 0.93 s-0.55002 0.52998 -0.75 0.69 c-2.2 1.88 -4.62 3.3 -7.26 4.26 s-5.34 1.44 -8.1 1.44 c-3.04 0 -6.06 -0.64002 -9.06 -1.92 s-5.62 -3.08 -7.86 -5.4 c-1.92 -2.12 -3.38 -4.47 -4.38 -7.05 s-1.5 -5.19 -1.5 -7.83 c0 -3.04 0.64002 -5.99 1.92 -8.85 s3.14 -5.37 5.58 -7.53 c2.16 -1.88 4.55 -3.3 7.17 -4.26 s5.27 -1.44 7.95 -1.44 c3.16 0 6.2298 0.61998 9.21 1.86 s5.61 3.12 7.89 5.64 l-9.48 8.28 c-1.04 -1.12 -2.22 -1.95 -3.54 -2.49 s-2.66 -0.81 -4.02 -0.81 c-2.4 0 -4.6 0.82002 -6.6 2.46 c-1.04 0.91998 -1.84 2.02 -2.3999 3.2999 s-0.84 2.56 -0.84 3.8399 c0 1.16 0.21 2.31 0.63 3.45 s1.07 2.17 1.95 3.09 c1 1.12 2.14 1.95 3.42 2.49 s2.6 0.81 3.96 0.81 c1.16 0 2.32 -0.19998 3.4799 -0.6 s2.2 -1.02 3.1199 -1.86 c0.28002 -0.19998 0.56004 -0.46998 0.84006 -0.81 s0.48 -0.61002 0.6 -0.81 z"></path>
  </g>
</svg>