<svg t="1721582441878" class="icon" viewBox="0 0 1024 1024" version="1.1" xmlns="http://www.w3.org/2000/svg" p-id="26600" width="32" height="32"><path d="M46.830933 496.0256a470.016 466.602667 90 1 0 933.205334 0 470.016 466.602667 90 1 0-933.205334 0Z" fill="#040000" opacity=".2" p-id="26601"></path><path d="M46.830933 523.332267a470.016 466.602667 90 1 0 933.205334 0 470.016 466.602667 90 1 0-933.205334 0Z" fill="#F7F8F8" p-id="26602"></path><path d="M513.4336 542.173867m-477.866667 0a477.866667 477.866667 0 1 0 955.733334 0 477.866667 477.866667 0 1 0-955.733334 0Z" fill="#FFFFFF" p-id="26603"></path><path d="M520.260267 528.520533m-433.9712 0a433.9712 433.9712 0 1 0 867.9424 0 433.9712 433.9712 0 1 0-867.9424 0Z" fill="#FFFFFF" p-id="26604"></path><path d="M526.7456 554.3936v-416.426667a421.956267 421.956267 0 0 1 296.891733 121.992534z" fill="#F1DF9B" p-id="26605"></path><path d="M526.7456 554.3936L229.853867 259.959467a422.229333 422.229333 0 0 1 296.891733-121.992534z" fill="#C9D877" p-id="26606"></path><path d="M526.7456 554.3936l287.675733-303.240533a414.651733 414.651733 0 0 1 132.164267 303.240533z" fill="#E894A3" p-id="26607"></path><path d="M526.7456 554.3936h-419.84a414.72 414.72 0 0 1 122.88-294.434133z" fill="#BADABD" p-id="26608"></path><path d="M526.7456 554.3936l-296.891733 294.5024a414.72 414.72 0 0 1-122.88-294.5024z" fill="#8FCBD5" p-id="26609"></path><path d="M526.7456 554.3936v416.426667a421.819733 421.819733 0 0 1-296.891733-121.924267z" fill="#82B9E1" p-id="26610"></path><path d="M526.7456 554.3936l296.891733 294.5024a421.4784 421.4784 0 0 1-296.891733 121.924267z" fill="#BD9EC5" p-id="26611"></path><path d="M526.7456 554.3936h419.84a414.72 414.72 0 0 1-122.88 294.5024z" fill="#D7BDD7" p-id="26612"></path><path d="M964.471467 559.240533H472.200533l348.16-348.16 12.0832 12.0832a451.310933 451.310933 0 0 1 132.096 318.941867z m-409.6-34.133333h375.466666A416.9728 416.9728 0 0 0 820.0192 259.413333z" fill="#77748A" p-id="26613"></path><path d="M496.366933 583.406933V91.136h17.066667a451.310933 451.310933 0 0 1 318.941867 132.096l12.0832 12.0832z m34.133334-457.796266v375.466666l265.4208-265.4208A416.9728 416.9728 0 0 0 530.500267 125.610667z" fill="#7A768D" p-id="26614"></path><path d="M530.500267 583.406933l-348.16-348.16 12.014933-12.0832a451.310933 451.310933 0 0 1 319.0784-132.027733h17.066667zM230.877867 235.588267l265.489066 265.4208v-375.466667a416.9728 416.9728 0 0 0-265.489066 110.045867z" fill="#7A768D" p-id="26615"></path><path d="M554.5984 559.240533H62.327467v-17.066666A451.310933 451.310933 0 0 1 194.423467 223.232l12.0832-12.0832z m-457.796267-34.133333h375.466667L206.779733 259.413333a416.9728 416.9728 0 0 0-109.9776 265.693867z" fill="#7A768D" p-id="26616"></path><path d="M206.506667 873.198933l-12.0832-12.0832A450.9696 450.9696 0 0 1 62.327467 542.173867v-17.066667h492.270933z m-109.704534-314.026666a416.9728 416.9728 0 0 0 109.9776 265.489066l265.4208-265.4208z" fill="#7A768D" p-id="26617"></path><path d="M530.500267 993.28h-17.066667a450.9696 450.9696 0 0 1-319.010133-132.164267l-12.014934-12.014933 348.16-348.16z m-299.6224-144.452267a416.9728 416.9728 0 0 0 265.489066 109.9776v-375.466666z" fill="#7A768D" p-id="26618"></path><path d="M513.4336 993.28h-17.066667V501.009067l348.16 348.16-12.0832 12.014933a450.9696 450.9696 0 0 1-319.010133 132.096z m17.066667-409.6v375.466667a416.9728 416.9728 0 0 0 265.4208-109.9776z" fill="#7A768D" p-id="26619"></path><path d="M820.292267 873.198933l-348.16-348.16h492.270933v17.066667a450.9696 450.9696 0 0 1-132.096 318.941867z m-265.693867-314.026666l265.4208 265.489066a416.9728 416.9728 0 0 0 109.9776-265.489066z" fill="#7A768D" p-id="26620"></path></svg>